<?xml version="1.0" encoding="iso-8859-1"?>
<!-- Generator: Adobe Illustrator 19.2.0, SVG Export Plug-In . SVG Version: 6.00 Build 0)  -->
<svg xmlns="http://www.w3.org/2000/svg" xmlns:xlink="http://www.w3.org/1999/xlink" version="1.1" id="Layer_1" x="0px" y="0px" viewBox="0 0 40 40" style="enable-background:new 0 0 40 40;" xml:space="preserve">
<g>
	<path style="fill:#DFF0FE;" d="M1.5,33.5V18c0-6.604,4.497-11.265,11-11.491v3.115c-4.421,1.371-5,5.181-5,8.376v0.5h9v15H1.5z"/>
	<path style="fill:#4788C7;" d="M12,7.037v2.226C7.537,10.846,7,14.969,7,18v1h1h8v14H2V18C2,11.862,6.062,7.479,12,7.037 M13,6   C6.004,6,1,11.004,1,18v16h16V18H8c0-3.498,0.759-6.869,5-8V6L13,6z"/>
</g>
<g>
	<path style="fill:#DFF0FE;" d="M23.5,33.5V18c0-6.604,4.497-11.265,11-11.491v3.115c-4.421,1.371-5,5.181-5,8.376v0.5h9v15H23.5z"/>
	<path style="fill:#4788C7;" d="M34,7.037v2.226c-4.463,1.583-5,5.706-5,8.737v1h1h8v14H24V18C24,11.862,28.062,7.479,34,7.037    M35,6c-6.996,0-12,5.004-12,12v16h16V18h-9c0-3.498,0.759-6.869,5-8V6L35,6z"/>
</g>
</svg>
